HIERARCHY
ROOT Hips
{
	OFFSET	0.00	0.00	0.00
	CHANNELS 6 Xposition Yposition Zposition Zrotation Xrotation Yrotation
	JOINT LeftUpLeg
	{
		OFFSET	 0.126116	-0.014019	-0.065224
		CHANNELS 3 Zrotation Xrotation Yrotation
		JOINT LeftLeg
		{
			OFFSET	 0.000000	 0.000000	 0.569914
			CHANNELS 3 Zrotation Xrotation Yrotation
			JOINT LeftFoot
			{
				OFFSET	 0.000000	 0.000000	 0.544423
				CHANNELS 3 Zrotation Xrotation Yrotation
				JOINT LeftToeBase
				{
					OFFSET	 0.000000	 0.000000	 0.207117
					CHANNELS 3 Zrotation Xrotation Yrotation
					End Site
					{
						OFFSET	 0.000000	 0.000000	 0.207117
					}
				}
			}
		}
	}
	JOINT RightUpLeg
	{
		OFFSET	-0.124023	-0.008373	-0.065224
		CHANNELS 3 Zrotation Xrotation Yrotation
		JOINT RightLeg
		{
			OFFSET	 0.000000	 0.000000	 0.570047
			CHANNELS 3 Zrotation Xrotation Yrotation
			JOINT RightFoot
			{
				OFFSET	 0.000000	 0.000000	 0.544354
				CHANNELS 3 Zrotation Xrotation Yrotation
				JOINT RightToeBase
				{
					OFFSET	 0.000000	 0.000000	 0.207540
					CHANNELS 3 Zrotation Xrotation Yrotation
					End Site
					{
						OFFSET	 0.000000	 0.000000	 0.207540
					}
				}
			}
		}
	}
	JOINT Spine
	{
		OFFSET	 0.000184	-0.007763	 0.117403
		CHANNELS 3 Zrotation Xrotation Yrotation
		JOINT Spine1
		{
			OFFSET	 0.000000	 0.000000	 0.137269
			CHANNELS 3 Zrotation Xrotation Yrotation
			JOINT Spine2
			{
				OFFSET	 0.000000	 0.000000	 0.156879
				CHANNELS 3 Zrotation Xrotation Yrotation
				JOINT LeftShoulder
				{
					OFFSET	 0.080501	-0.002496	 0.160144
					CHANNELS 3 Zrotation Xrotation Yrotation
					JOINT LeftArm
					{
						OFFSET	 0.000000	 0.000000	 0.164363
						CHANNELS 3 Zrotation Xrotation Yrotation
						JOINT LeftForeArm
						{
							OFFSET	 0.000000	 0.000000	 0.364576
							CHANNELS 3 Zrotation Xrotation Yrotation
							JOINT LeftHand
							{
								OFFSET	 0.000000	 0.000000	 0.360812
								CHANNELS 3 Zrotation Xrotation Yrotation
								JOINT LeftHandIndex1
								{
									OFFSET	 0.000000	 0.000000	 0.086006
									CHANNELS 3 Zrotation Xrotation Yrotation
									JOINT LeftHandIndex2
									{
										OFFSET	 0.000000	 0.000000	 0.047236
										CHANNELS 3 Zrotation Xrotation Yrotation
										JOINT LeftHandIndex3
										{
											OFFSET	-0.004284	-0.000551	 0.038166
											CHANNELS 3 Zrotation Xrotation Yrotation
											End Site
											{
												OFFSET	-0.004284	-0.000551	 0.038166
											}
										}
									}
								}
							}
						}
					}
				}
				JOINT Neck
				{
					OFFSET	 0.000000	 0.000000	 0.176489
					CHANNELS 3 Zrotation Xrotation Yrotation
					JOINT Head
					{
						OFFSET	 0.000000	-0.001747	 0.077940
						CHANNELS 3 Zrotation Xrotation Yrotation
						End Site
						{
							OFFSET	 0.000000	-0.001747	 0.077940
						}
					}
				}
				JOINT RightShoulder
				{
					OFFSET	-0.080363	 0.000306	 0.159706
					CHANNELS 3 Zrotation Xrotation Yrotation
					JOINT RightArm
					{
						OFFSET	 0.000000	 0.000000	 0.164196
						CHANNELS 3 Zrotation Xrotation Yrotation
						JOINT RightForeArm
						{
							OFFSET	 0.000000	 0.000000	 0.365611
							CHANNELS 3 Zrotation Xrotation Yrotation
							JOINT RightHand
							{
								OFFSET	 0.000000	 0.000000	 0.360648
								CHANNELS 3 Zrotation Xrotation Yrotation
								JOINT RightHandIndex1
								{
									OFFSET	 0.000000	 0.000000	 0.069977
									CHANNELS 3 Zrotation Xrotation Yrotation
									JOINT RightHandIndex2
									{
										OFFSET	 0.000000	 0.000000	 0.052305
										CHANNELS 3 Zrotation Xrotation Yrotation
										JOINT RightHandIndex3
										{
											OFFSET	 0.009002	-0.000782	 0.042196
											CHANNELS 3 Zrotation Xrotation Yrotation
											End Site
											{
												OFFSET	 0.009002	-0.000782	 0.042196
											}
										}
									}
								}
							}
						}
					}
				}
			}
		}
	}
}
MOTION
Frames:    6
Frame Time: 0.03333334
-0.060071	-2.273696	 1.248652	 4.670542	-1.480315	-3.317690	 16.780960	-3.940242	-175.215900	 0.734492	-28.535960	 0.147129	 23.161990	 72.746740	-26.146630	-2.370340	 31.456690	-0.066344	-21.930160	-32.279620	-177.173600	 9.659896	-47.949630	 7.774153	 2.053719	 62.102490	 4.564083	 2.358444	 33.078060	 0.105034	 4.805036	 8.830658	 1.466037	-0.054011	 2.821090	 1.226318	-3.703759	-2.664533	-1.653960	-93.873660	 58.949270	 175.528200	 11.025100	 29.741620	-42.530320	 8.003115	-1.003307	-6.049542	 25.195820	-27.099370	 4.766515	-4.869209	 19.245360	-2.786491	-3.886570	 21.408210	 2.207881	-4.808259	 5.545506	 0.146967	-0.094767	-5.052597	 0.174520	-5.766022	 2.232883	 2.468399	 89.799280	 61.623660	-179.959100	-19.493520	 50.807590	 12.489120	-10.586710	-2.126271	 9.028573	-29.251620	-11.359100	-4.423444	 6.297637	 25.275050	-0.553935	 1.829961	 45.145730	-6.943540	 0.467594	 24.532970	 3.598115
-0.063413	-2.342835	 1.244650	 5.696426	-0.706507	-3.295695	 15.579280	-1.119498	-176.425000	 1.120280	-27.444380	 0.353776	 21.533490	 74.871320	-24.612210	-2.368551	 31.755340	-0.073108	-25.222240	-34.896630	 179.775800	 9.228018	-37.090640	 6.061325	-2.384130	 61.017560	 8.970627	 2.359001	 32.995120	 0.103109	-3.673426	 8.359305	 1.414998	-0.546935	 3.008882	 0.957230	-2.983051	-2.953323	-1.234107	-94.102230	 59.018780	 175.031600	 8.607221	 26.308980	-44.045620	 10.648460	-1.801147	-8.062808	 25.149270	-20.732920	 0.295601	-4.864417	 19.374370	-2.796218	-3.874943	 21.556890	 2.196068	-4.804732	 5.587119	 0.144532	-0.040177	-5.104087	 0.229573	-4.877864	 2.206182	 2.337192	 89.717740	 61.723870	 179.846100	-19.369660	 52.749830	 8.498950	-14.258830	-4.227306	 13.462720	-29.064480	-3.405104	-1.139416	 6.277722	 23.652170	-0.550229	 2.030393	 43.501990	-7.121833	 0.780538	 23.149620	 3.441443
-0.066850	-2.402319	 1.237674	 6.262734	 0.068733	-3.444048	 14.701530	 1.130936	-177.272200	 1.345033	-26.854800	 0.448289	 20.119890	 77.271590	-23.189440	-2.366591	 32.072830	-0.080338	-26.828720	-35.937310	 177.459300	 9.177931	-27.199330	 4.577866	-4.858386	 59.611060	 10.743100	 2.360376	 32.791280	 0.098382	-10.664300	 7.767696	 1.482220	-0.959064	 3.133364	 0.730550	-2.335397	-3.122986	-0.884641	-94.292170	 58.978820	 174.632300	 6.797872	 23.958830	-45.079620	 12.745350	-2.632174	-9.661523	 25.049460	-15.367560	-2.195649	-4.852954	 19.652300	-2.811598	-3.859241	 21.756860	 2.180112	-4.795902	 5.691039	 0.138439	-0.012486	-5.154557	 0.288873	-4.158351	 2.175276	 2.321972	 89.612590	 61.852530	 179.592900	-18.895290	 53.948570	 6.710626	-17.846340	-4.971611	 14.065890	-29.059620	 3.294560	 1.115610	 6.251278	 21.991260	-0.594302	 2.191385	 42.102750	-7.263753	 1.137299	 21.531520	 3.270546
-0.071883	-2.469760	 1.225314	 6.529104	 0.731047	-3.722693	 13.975010	 4.078740	-178.267500	 1.503780	-26.297640	 0.510014	 17.006180	 80.130680	-19.966830	-2.361281	 32.893740	-0.099202	-26.764640	-39.724710	 175.483100	 9.347176	-22.311040	 3.870631	-5.755943	 62.957690	 10.538140	 2.356184	 33.404230	 0.112642	-18.367490	 7.123597	 1.714674	-1.389627	 3.494522	 0.398398	-1.528554	-3.288802	-0.456863	-94.444520	 58.895210	 174.321000	 4.988136	 22.118160	-46.202380	 14.832950	-3.724865	-11.355160	 24.111080	-9.551703	-4.137543	-4.832908	 20.076440	-2.821896	-3.833385	 22.083780	 2.153840	-4.777546	 5.906756	 0.125744	 0.012983	-5.244582	 0.334381	-3.329373	 2.103165	 2.332310	 89.483830	 61.994790	 179.279800	-17.825740	 54.689310	 6.128829	-22.467680	-4.131901	 11.867290	-28.722620	 10.358260	 2.544981	 6.210797	 19.797520	-0.678115	 2.436639	 39.824510	-7.477532	 1.612850	 19.307890	 3.056160
-0.077312	-2.533274	 1.213080	 6.722504	 0.963369	-3.917903	 13.309350	 6.987493	-179.343600	 1.667902	-26.157320	 0.579867	 10.998250	 82.164940	-13.857920	-2.348657	 34.649230	-0.140465	-26.064610	-43.428590	 174.399900	 9.771814	-21.970980	 3.978124	-5.126077	 68.155300	 8.739566	 2.343572	 35.084120	 0.152548	-25.160080	 6.835888	 1.911371	-1.800232	 3.599180	 0.087720	-0.769424	-3.396835	-0.071755	-94.518180	 58.879140	 174.167200	 3.596746	 21.313670	-46.701820	 16.947050	-4.800168	-12.727950	 22.718960	-5.726957	-5.650824	-4.833103	 20.380970	-2.913262	-3.805515	 22.433040	 2.125543	-4.751646	 6.209999	 0.107760	 0.064102	-5.340319	 0.350454	-2.535013	 2.043784	 2.218235	 89.396520	 62.010250	 179.068500	-16.523550	 55.274610	 3.870006	-26.283880	-4.912133	 12.731310	-27.520570	 15.215240	 2.646728	 6.177183	 17.632370	-0.709368	 2.712136	 37.034010	-7.713665	 2.067469	 17.113070	 2.866279
-0.083396	-2.603456	 1.203998	 6.978240	 0.987449	-3.826679	 12.373670	 10.255510	 179.257400	 2.001045	-25.895960	 0.720051	-0.189757	 82.808550	-2.723688	-2.317904	 38.139100	-0.226821	-25.589640	-43.266910	 173.757300	 10.048930	-21.047340	 3.921715	-4.222389	 69.276040	 7.157693	 2.336610	 35.926460	 0.173042	-31.743130	 6.822098	 1.940591	-2.342402	 2.852154	-0.489105	-0.041130	-3.149636	 0.399541	-94.535190	 59.032340	 174.105700	 2.593183	 21.209460	-46.138830	 19.129530	-5.907731	-13.935020	 20.813890	-4.048501	-6.802126	-4.858090	 20.541950	-3.106086	-3.779148	 22.760620	 2.098759	-4.715600	 6.629847	 0.082620	 0.136131	-5.431903	 0.321841	-1.711255	 2.034197	 2.049622	 89.357390	 61.839820	 178.980300	-15.234580	 55.605460	 1.479005	-29.674090	-6.026836	 13.925310	-25.494570	 18.031220	 1.777090	 6.172345	 15.417200	-0.586222	 2.927320	 34.666730	-7.894712	 2.510648	 14.911580	 2.696112
